<?xml version="1.0" encoding="UTF-8"?>
<svg width="310px" height="285px" viewBox="0 0 310 285" version="1.1" xmlns="http://www.w3.org/2000/svg" xmlns:xlink="http://www.w3.org/1999/xlink">
    <!-- Generator: Sketch 50.2 (55047) - http://www.bohemiancoding.com/sketch -->
    <title>doctorsvg</title>
    <desc>Created with Sketch.</desc>
    <defs>
        <path d="M8.00409836,22.7924107 C6.35245902,22.0290179 2.54098361,21.3928571 1.14344262,25.5915179 C-0.254098361,29.7901786 0.889344262,31.4441964 2.54098361,32.84375 C4.19262295,34.2433036 6.22540984,34.4977679 6.22540984,34.4977679 C6.22540984,34.4977679 7.36885246,49.8928571 11.1803279,57.5267857 C14.9918033,65.1607143 25.0286885,72.5401786 35.192623,71.9040179 C46.7540984,71.2678571 55.1393443,65.2879464 59.9672131,57.0178571 C64.795082,48.7477679 68.2254098,35.3883929 68.8606557,26.9910714 C69.3688525,20.5022321 70.3852459,10.9598214 67.5901639,8.16071429 C64.795082,5.36160714 61.8729508,9.43303571 59.3319672,10.3236607 C56.9180328,11.2142857 51.9631148,11.9776786 47.1352459,8.54241071 C42.307377,5.10714286 37.352459,2.05357143 33.5409836,0.78125 C29.7295082,-0.491071429 26.807377,-0.236607143 23.5040984,3.19866071 C21.0901639,5.74330357 20.2008197,9.30580357 20.0737705,11.7232143 C19.9467213,14.0133929 19.9467213,19.9933036 19.1844262,25.4642857 C18.4221311,30.9352679 17.2786885,36.1517857 17.2786885,36.1517857 C17.2786885,36.1517857 14.8647541,34.8794643 14.6106557,31.8258929 C14.3565574,28.7723214 13.8483607,23.6830357 13.4672131,21.6473214 C13.0860656,19.6116071 13.0860656,19.6116071 13.0860656,19.6116071 L10.6721311,24.3191964 C10.7991803,24.828125 8.76639344,23.1741071 8.00409836,22.7924107 Z" id="path-1"></path>
        <path d="M16.5163934,1.52678571 C16.5163934,1.52678571 20.9631148,35.3705357 18.4221311,39.1875 C16.0081967,42.75 11.4344262,41.7321429 11.4344262,41.7321429 C11.4344262,41.7321429 9.90983607,61.7075893 1.2704918,66.2879464 C-4.44672131,69.3415179 22.7418033,62.8526786 22.7418033,62.8526786 L34.6844262,43.8950893 L37.8606557,30.9174107 L39.2581967,17.8125 L38.3688525,0 L16.5163934,1.52678571 Z" id="path-3"></path>
    </defs>
    <g id="Page-1" stroke="none" stroke-width="1" fill="none" fill-rule="evenodd">
        <g id="Artboard-Copy-3" transform="translate(-267.000000, -5543.000000)">
            <g id="doctor" transform="translate(267.000000, 5543.000000)">
                <circle id="Oval" fill="#ECF6F6" fill-rule="nonzero" cx="129" cy="145" r="104"></circle>
                <g id="Group">
                    <polygon id="Shape" fill="#FFFFFF" fill-rule="nonzero" points="0.254098361 208.40625 243.29918 208.40625 309.364754 284.618304 45.102459 284.618304"></polygon>
                    <path d="M173.422131,247.084821 L141.02459,270.622768 C140.897541,270.75 140.643443,270.75 140.516393,270.622768 L92.2377049,241.995536 L126.286885,220.747768 C126.413934,220.620536 126.540984,220.620536 126.795082,220.747768 L173.422131,246.321429 C173.67623,246.448661 173.803279,246.830357 173.422131,247.084821 Z" id="Shape" fill="#E0F0F7" fill-rule="nonzero"></path>
                    <path d="M243.29918,238.941964 L207.090164,257.645089 C207.090164,257.645089 207.090164,257.645089 206.963115,257.645089 L157.795082,232.198661 C157.668033,232.198661 157.668033,232.071429 157.795082,232.071429 L199.594262,218.584821 L243.29918,238.941964 C243.29918,238.814732 243.29918,238.941964 243.29918,238.941964 Z" id="Shape" fill="#D4ECF5" fill-rule="nonzero"></path>
                    <path d="M242.155738,238.051339 L206.963115,256.118304 C206.836066,256.245536 206.581967,256.245536 206.454918,256.118304 L158.430328,231.308036 C158.04918,231.053571 158.04918,230.417411 158.557377,230.290179 L199.340164,217.185268 L242.155738,237.160714 C242.536885,237.287946 242.536885,237.924107 242.155738,238.051339 Z" id="Shape" fill="#E0F0F7" fill-rule="nonzero"></path>
                    <path d="M68.7336066,189.575893 C68.7336066,189.575893 70.8934426,105.220982 95.2868852,89.5714286 C125.397541,70.2321429 175.20082,90.7165179 192.733607,108.65625 C224.114754,140.973214 221.827869,191.993304 219.413934,210.569196 L74.8319672,210.696429 L68.7336066,189.575893 Z" id="Shape" fill="#E3E3E4" fill-rule="nonzero"></path>
                    <path d="M120.696721,82.3191964 C86.9016393,79.7745536 52.0901639,109.292411 35.4467213,142.118304 C18.8032787,174.944196 25.5368852,227.363839 59.8401639,239.959821 C78.6434426,246.830357 100.368852,245.939732 100.368852,245.939732 C100.368852,245.939732 99.0983607,238.6875 106.086066,228.127232 C106.086066,228.127232 64.2868852,219.09375 75.0860656,189.321429" id="Shape" fill="#E3E3E4" fill-rule="nonzero"></path>
                    <polygon id="Shape" fill="#37C0CD" fill-rule="nonzero" points="109.262295 88.8080357 121.586066 80.15625 145.090164 86.1361607 153.729508 88.4263393 135.561475 163.366071 130.606557 186.904018 128.446721 197.464286"></polygon>
                    <path d="M118.918033,79.265625 C118.918033,79.265625 118.155738,81.046875 116.631148,85.2455357 L111.930328,87.1540179 C111.930328,87.1540179 112.565574,90.3348214 118.028689,92.8794643 C122.729508,95.0424107 126.159836,95.296875 132.131148,95.1696429 C136.196721,95.0424107 140.897541,92.625 141.786885,91.6071429 C142.422131,90.7165179 139.754098,86.6450893 139.627049,84.8638393 C139.5,82.5736607 141.532787,79.5200893 143.311475,76.4665179 C145.217213,73.4129464 118.918033,79.265625 118.918033,79.265625 Z" id="Shape" fill="#0880C4" fill-rule="nonzero"></path>
                    <path d="M111.930328,200.517857 L133.782787,236.90625 L140.389344,241.741071 L139.372951,234.743304 L116.758197,197.591518 C116.377049,196.828125 115.360656,196.700893 114.598361,197.082589 L112.438525,198.482143 C111.803279,198.863839 111.54918,199.754464 111.930328,200.517857 Z" id="Shape" fill="#FFCE43" fill-rule="nonzero"></path>
                    <path d="M105.577869,228.127232 L116.504098,231.5625 C116.885246,231.689732 117.77459,230.799107 117.901639,230.290179 C118.663934,228 120.82377,222.274554 126.668033,226.600446 C126.668033,226.600446 128.70082,222.020089 132.512295,225.837054 C136.704918,229.908482 141.151639,232.198661 138.229508,235.125 C136.45082,236.90625 133.147541,233.979911 133.147541,233.979911 C133.147541,233.979911 139.118852,237.287946 138.356557,239.069196 C137.594262,240.850446 135.942623,241.104911 134.92623,240.595982 C132.893443,239.578125 131.75,238.941964 131.75,238.941964 C131.75,238.941964 133.27459,241.359375 132.131148,242.25 C130.860656,243.140625 129.971311,242.631696 128.446721,241.613839 C126.922131,240.595982 126.540984,240.214286 124.635246,240.46875 C123.364754,240.595982 122.856557,243.013393 118.536885,243.140625 C116.631148,243.267857 114.852459,241.359375 113.327869,241.741071 C110.659836,242.377232 109.008197,243.522321 106.721311,244.412946 C103.418033,245.685268 99.7336066,245.939732 99.7336066,245.939732 C99.7336066,245.939732 99.0983607,231.944196 105.577869,228.127232 Z" id="Shape" fill="#0880C4" fill-rule="nonzero"></path>
                    <path d="M126.540984,95.1696429 L130.733607,101.785714 C130.860656,101.912946 130.860656,102.040179 130.733607,102.167411 C130.733607,102.167411 123.618852,125.578125 123.110656,129.013393 C122.221311,134.102679 122.094262,146.571429 123.110656,162.729911 C124.254098,179.270089 128.57377,196.191964 128.57377,196.191964 L130.479508,186.395089 C130.479508,186.395089 138.610656,151.279018 139.118852,148.607143 C140.008197,144.790179 141.405738,132.321429 141.278689,128.122768 C141.151639,122.142857 133.909836,101.404018 133.909836,101.404018 C133.909836,101.276786 133.909836,101.276786 133.909836,101.149554 C133.909836,101.149554 134.79918,99.2410714 135.053279,98.4776786 C135.434426,97.4598214 136.704918,94.1517857 136.32377,94.2790179 C135.180328,94.6607143 133.401639,95.0424107 132.004098,95.0424107 C130.22541,95.1696429 127.938525,95.1696429 126.540984,95.1696429 Z" id="Shape" fill="#4FDBD4" fill-rule="nonzero"></path>
                    <path d="M82.5819672,186.013393 C80.0409836,186.013393 75.7213115,185.631696 72.0368852,183.214286 C67.4631148,180.415179 70.0040984,159.167411 71.7827869,146.825893 L75.5942623,147.334821 C73.4344262,161.457589 72.4180328,177.870536 74.1967213,179.90625 C78.5163934,182.578125 84.2336066,181.941964 84.3606557,181.941964 L84.8688525,185.758929 C84.6147541,185.886161 83.7254098,186.013393 82.5819672,186.013393 Z" id="Shape" fill="#FFFFFF" fill-rule="nonzero"></path>
                    <path d="M89.442623,183.595982 C89.5696721,185.504464 88.1721311,187.03125 86.3934426,187.285714 C84.6147541,187.540179 83.0901639,186.140625 83.0901639,184.232143 C82.9631148,182.323661 84.3606557,180.796875 86.1393443,180.542411 C87.9180328,180.415179 89.442623,181.814732 89.442623,183.595982 Z" id="Shape" fill="#676868" fill-rule="nonzero"></path>
                    <g id="Clipped" transform="translate(96.557377, 17.540179)">
                        <mask id="mask-2" fill="white">
                            <use xlink:href="#path-1"></use>
                        </mask>
                        <g id="SVGID_35_"></g>
                        <path d="M54.5040984,11.46875 C54.5040984,11.46875 55.5204918,32.5892857 55.647541,34.4977679 C55.9016393,36.40625 56.1557377,40.7321429 55.3934426,43.0223214 C54.6311475,45.3125 53.8688525,45.9486607 52.5983607,46.3303571 C51.3278689,46.7120536 50.1844262,46.5848214 50.1844262,46.5848214 C50.1844262,46.5848214 48.7868852,54.9821429 47.2622951,58.5446429 C45.7377049,62.1071429 43.5778689,66.6875 42.5614754,68.2142857 C41.545082,69.7410714 40.4016393,71.7767857 40.4016393,71.7767857 L58.442623,75.0848214 L73.942623,44.6763393 L76.4836066,23.046875 L70.7663934,11.5959821 L67.2090164,3.83482143 L54.7581967,7.14285714 L54.5040984,11.46875 Z" id="Shape" fill="#0C80C3" fill-rule="nonzero" mask="url(#mask-2)"></path>
                    </g>
                    <path d="M113.07377,63.234375 C113.07377,63.234375 98.9713115,67.5602679 97.7008197,43.8950893 C96.557377,24.5558036 101.258197,12.8504464 105.45082,11.8325893 C105.45082,11.8325893 104.815574,6.36160714 108.372951,7.125 C112.057377,7.88839286 116.25,5.85267857 121.967213,4.58035714 C133.401639,2.03571429 148.520492,4.16333634e-15 155.381148,0.381696429 C162.368852,0.763392857 169.102459,1.90848214 172.786885,7.125 C175.709016,11.3236607 176.979508,18.5758929 173.67623,24.046875 C171.135246,28.1183036 158.938525,33.84375 158.938525,33.84375 L126.922131,27.2276786 L123.745902,55.3459821 L116.504098,58.5267857 L110.278689,47.4575893 L113.07377,63.234375 Z" id="Shape" fill="#073447" fill-rule="nonzero"></path>
                    <path d="M108.754098,40.3325893 C107.102459,39.5691964 103.290984,38.9330357 101.893443,43.1316964 C100.495902,47.3303571 101.639344,48.984375 103.290984,50.3839286 C104.942623,51.7834821 106.97541,52.0379464 106.97541,52.0379464 C106.97541,52.0379464 108.118852,67.4330357 111.930328,75.0669643 C115.741803,82.7008929 125.778689,90.0803571 135.942623,89.4441964 C147.504098,88.8080357 155.889344,82.828125 160.717213,74.5580357 C165.545082,66.2879464 168.97541,52.9285714 169.610656,44.53125 C170.118852,38.0424107 171.135246,28.5 168.340164,25.7008929 C165.672131,22.9017857 162.622951,26.9732143 160.081967,27.8638393 C157.540984,28.7544643 152.713115,29.5178571 147.885246,26.0825893 C143.057377,22.6473214 138.102459,19.59375 134.290984,18.3214286 C130.479508,17.0491071 127.557377,17.3035714 124.254098,20.7388393 C121.840164,23.2834821 120.95082,26.8459821 120.82377,29.2633929 C120.696721,31.5535714 120.696721,37.5334821 119.934426,43.0044643 C119.172131,48.4754464 118.028689,53.6919643 118.028689,53.6919643 C118.028689,53.6919643 115.614754,52.4196429 115.360656,49.3660714 C115.106557,46.3125 114.598361,41.2232143 114.217213,39.1875 C113.836066,37.1517857 113.836066,37.1517857 113.836066,37.1517857 L111.422131,41.859375 C111.54918,42.3683036 109.516393,40.7142857 108.754098,40.3325893 Z" id="Shape" fill="#52A5D3" fill-rule="nonzero"></path>
                    <path d="M126.286885,42.1138393 C128.827869,39.5691964 132.893443,38.9330357 136.32377,40.2053571 C139.754098,41.4776786 142.295082,44.4040179 143.438525,47.8392857 C140.389344,48.8571429 137.086066,49.875 133.782787,49.6205357 C130.479508,49.3660714 127.17623,47.7120536 125.778689,44.6584821 C125.52459,44.2767857 125.397541,43.7678571 125.52459,43.3861607 C125.651639,42.8772321 126.032787,42.4955357 126.286885,42.1138393 Z" id="Shape" fill="#C1E8FA" fill-rule="nonzero"></path>
                    <g id="Clipped" transform="translate(139.754098, 22.901786)">
                        <mask id="mask-4" fill="white">
                            <use xlink:href="#path-3"></use>
                        </mask>
                        <g id="SVGID_37_"></g>
                        <path d="M-31,17.4308036 C-32.6516393,16.6674107 -36.4631148,16.03125 -37.8606557,20.2299107 C-39.2581967,24.4285714 -38.1147541,26.0825893 -36.4631148,27.4821429 C-34.8114754,28.8816964 -32.7786885,29.1361607 -32.7786885,29.1361607 C-32.7786885,29.1361607 -31.6352459,44.53125 -27.8237705,52.1651786 C-24.0122951,59.7991071 -13.9754098,67.1785714 -3.81147541,66.5424107 C7.75,65.90625 16.1352459,59.9263393 20.9631148,51.65625 C25.7909836,43.3861607 29.2213115,30.0267857 29.8565574,21.6294643 C30.3647541,15.140625 31.3811475,5.59821429 28.5860656,2.79910714 C25.9180328,-1.50990331e-14 22.8688525,4.07142857 20.3278689,4.96205357 C17.7868852,5.85267857 12.9590164,6.61607143 8.13114754,3.18080357 C3.30327869,-0.254464286 -1.65163934,-3.30803571 -5.46311475,-4.58035714 C-9.27459016,-5.85267857 -12.1967213,-5.59821429 -15.5,-2.16294643 C-17.9139344,0.381696429 -18.8032787,3.94419643 -18.9303279,6.36160714 C-19.057377,8.65178571 -19.057377,14.6316964 -19.8196721,20.1026786 C-20.5819672,25.5736607 -21.7254098,30.7901786 -21.7254098,30.7901786 C-21.7254098,30.7901786 -24.1393443,29.5178571 -24.3934426,26.4642857 C-24.647541,23.4107143 -25.1557377,18.3214286 -25.5368852,16.2857143 C-25.9180328,14.25 -25.9180328,14.25 -25.9180328,14.25 L-28.3319672,18.9575893 C-28.204918,19.4665179 -30.2377049,17.8125 -31,17.4308036 Z" id="Shape" fill="#0880C4" fill-rule="nonzero" mask="url(#mask-4)"></path>
                    </g>
                    <g transform="translate(191.844262, 202.299107)" fill="#0880C4" fill-rule="nonzero" id="Shape">
                        <path d="M17.6598361,2.79910714 C20.2008197,0.381696429 24.5204918,0.381696429 24.9016393,4.32589286 C25.0286885,5.72544643 22.8688525,10.3058036 20.8360656,13.7410714 C18.9303279,16.921875 17.2786885,20.3571429 14.6106557,21.2477679 C10.545082,22.6473214 10.6721311,18.1941964 11.6885246,15.0133929 C11.8155738,14.7589286 10.6721311,16.7946429 10.545082,16.921875 C8.76639344,19.59375 6.22540984,20.6116071 4.44672131,19.59375 C2.41393443,18.4486607 6.22540984,8.015625 8.25819672,4.32589286 C11.942623,-2.29017857 15.1188525,1.39955357 15.5,3.30803571 C15.5,3.43526786 15.2459016,6.234375 15.3729508,6.10714286 C15.7540984,5.72544643 16.0081967,4.83482143 16.897541,3.5625 L17.6598361,2.79910714 Z"></path>
                        <path d="M18.0409836,17.6852679 C18.0409836,17.6852679 17.6598361,21.1205357 21.2172131,20.3571429 C24.0122951,19.8482143 27.5696721,16.1584821 28.7131148,14.1227679 C28.9672131,13.6138393 29.3483607,12.2142857 29.0942623,11.7053571 C28.5860656,10.6875 27.442623,9.66964286 25.1557377,10.1785714 C21.7254098,10.8147321 18.1680328,17.3035714 18.1680328,17.3035714"></path>
                        <path d="M6.60655738,10.3058036 C6.60655738,10.3058036 0.762295082,7.88839286 0.12704918,10.8147321 C-0.254098361,12.8504464 4.70081967,15.2678571 4.70081967,15.2678571 L6.60655738,10.3058036 Z"></path>
                    </g>
                    <path d="M102.909836,89.6986607 C100.368852,93.2611607 98.9713115,100.767857 99.2254098,105.984375 C99.4795082,111.837054 101.893443,118.707589 104.561475,125.450893 C109.135246,137.029018 123.618852,171.254464 123.618852,171.254464 L111.803279,82.3191964 C111.67623,82.4464286 105.45082,86.0089286 102.909836,89.6986607 Z" id="Shape" fill="#EFEFEF" fill-rule="nonzero"></path>
                    <path d="M92.7459016,121.506696 C92.7459016,121.125 92.2377049,110.055804 94.0163934,101.149554 C95.4139344,94.2790179 99.2254098,88.2991071 104.307377,85.1183036 C108.118852,82.7008929 112.946721,82.3191964 117.647541,82.3191964 C117.647541,82.3191964 117.520492,84.609375 117.139344,85.1183036 C116.631148,85.7544643 111.54918,85.1183036 109.262295,86.0089286 C104.434426,87.6629464 100.622951,91.8616071 98.4631148,96.9508929 C94.0163934,107.892857 95.9221311,122.015625 95.9221311,122.270089 L92.7459016,121.506696 Z" id="Shape" fill="#676868" fill-rule="nonzero"></path>
                    <path d="M103.545082,186.522321 C101.639344,186.522321 100.368852,186.267857 100.241803,186.267857 L100.877049,182.450893 C100.877049,182.450893 106.721311,183.46875 111.168033,180.796875 C112.946721,178.888393 112.692623,162.348214 111.168033,148.225446 L114.979508,147.84375 C116.25,160.3125 117.647541,181.560268 113.07377,184.104911 C109.770492,186.140625 106.086066,186.522321 103.545082,186.522321 Z" id="Shape" fill="#FFFFFF" fill-rule="nonzero"></path>
                    <path d="M111.295082,148.352679 C111.295082,148.352679 111.168033,142.627232 109.008197,136.901786 C106.213115,129.522321 101.258197,125.450893 94.5245902,124.6875 C94.0163934,124.6875 93.3811475,124.560268 92.8729508,124.6875 C86.0122951,125.069196 81.1844262,128.886161 78.1352459,136.138393 C75.8483607,141.863839 75.5942623,147.462054 75.5942623,147.589286 L71.7827869,147.462054 C72.0368852,138.683036 76.6106557,121.761161 92.6188525,120.870536 C93.3811475,120.870536 94.1434426,120.870536 94.9057377,120.997768 C114.72541,123.033482 115.106557,148.225446 115.106557,148.479911 L111.295082,148.352679 Z" id="Shape" fill="#676868" fill-rule="nonzero"></path>
                    <path d="M94.6516393,183.850446 C94.5245902,185.758929 95.9221311,187.412946 97.8278689,187.540179 C99.7336066,187.667411 101.385246,186.395089 101.512295,184.486607 C101.639344,182.578125 100.241803,180.924107 98.3360656,180.796875 C96.4303279,180.542411 94.7786885,181.941964 94.6516393,183.850446 Z" id="Shape" fill="#676868" fill-rule="nonzero"></path>
                </g>
                <circle id="Oval" fill="#676868" fill-rule="nonzero" cx="175.5" cy="145.5" r="9.5"></circle>
                <circle id="Oval" fill="#BFC7CB" fill-rule="nonzero" cx="175.5" cy="145.5" r="4.5"></circle>
                <path d="M132.502623,179.860942 C132.376968,180.116055 132,179.988498 132,179.733386 L144.314273,126.542434 L153.738461,87 C153.738461,87 161.152155,90.4440185 163.790928,94.6533743 C166.932324,99.5005114 163.288305,115.700154 160.39822,122.970859 C157.633792,129.858896 137.15189,170.549337 132.502623,179.860942 Z" id="Shape" fill="#EFEFEF" fill-rule="nonzero"></path>
                <path d="M173.867614,137 C173.867614,136.872861 174.376953,125.430318 171.57559,113.224939 C166.482204,91.4841076 147.254669,86.9070905 147,86.7799511 L150.565371,85 C151.456713,85.2542787 168.519558,89.4498778 174.504288,111.190709 C177.814989,123.650367 176.923646,136.491443 176.796312,137 L173.867614,137 Z" id="Shape" fill="#676868" fill-rule="nonzero"></path>
            </g>
        </g>
    </g>
</svg>